<svg xmlns="http://www.w3.org/2000/svg" viewBox="0 0 119.02 38.932">
<defs>
<style>
	.round{
		stroke-linecap:round;
		stroke-linejoin:round;		
	}	
	.invert{
		fill:transparent;
	}
	.stroke{
		stroke:#000;
	}
	.fill{
		fill:#000;
	}
	.nofill{
		fill:none;
	}
	@media (prefers-color-scheme:dark){	
		.stroke{
			stroke:#fff;
		}
		.fill{
			fill:#fff;
		}		
	}
</style>	
</defs>
  <path class="stroke invert" stroke-width="3.78" d="M25.816 509.63v143.1h446.35v-143.1zm16.273 8.84a7.438 7.438 0 0 1 7.438 7.437 7.438 7.438 0 0 1-7.438 7.44 7.438 7.438 0 0 1-7.44-7.44 7.438 7.438 0 0 1 7.44-7.437zm411.85 0a7.438 7.438 0 0 1 7.44 7.437 7.438 7.438 0 0 1-7.44 7.44 7.438 7.438 0 0 1-7.438-7.44 7.438 7.438 0 0 1 7.438-7.437zM42.089 629.68a7.438 7.438 0 0 1 7.438 7.44 7.438 7.438 0 0 1-7.438 7.437 7.438 7.438 0 0 1-7.44-7.438 7.438 7.438 0 0 1 7.44-7.44zm411.85 0a7.438 7.438 0 0 1 7.44 7.44 7.438 7.438 0 0 1-7.44 7.437 7.438 7.438 0 0 1-7.438-7.438 7.438 7.438 0 0 1 7.438-7.44z" transform="matrix(.26442 0 0 .26506 -6.326 -134.576)"/>
  <g class="stroke">
    <path class="invert" d="M84.626 168.7v-1.813a1.153 1.153 0 1 1 2.307 0v1.813m-6.19 0v-1.813c0-.638.517-1.154 1.154-1.154a1.15 1.15 0 0 1 1.154 1.15v1.813m-6.194.005v-1.813a1.153 1.153 0 1 1 2.307 0v1.813m-6.194 0v-1.813a1.153 1.153 0 1 1 2.308 0v1.813m-6.195 0v-1.813a1.153 1.153 0 1 1 2.308 0v1.813m-6.19 0v-1.813a1.153 1.153 0 1 1 2.308 0v1.813m19.425 17.303v2.03a1.153 1.153 0 1 1-2.308 0v-2.03m-1.575 0v2.03a1.153 1.153 0 1 1-2.307 0v-2.03m-1.58 0v2.03a1.153 1.153 0 1 1-2.307 0v-2.03m-1.58 0v2.03a1.153 1.153 0 1 1-2.307 0v-2.03m-1.579 0v2.03a1.153 1.153 0 1 1-2.308 0v-2.03m-1.574.113v1.922a1.153 1.153 0 1 1-2.308 0v-1.922" transform="matrix(.99938 0 0 1.0018 -52.75 -158.516)"/>
    <path class="invert" d="M87.516 168.7H64.621a.42.42 0 0 0-.421.421v16.467c0 .23.186.421.42.421h22.891c.23 0 .421-.187.421-.42V169.12a.417.417 0 0 0-.416-.42z" transform="matrix(.99938 0 0 1.0018 -52.75 -158.516)"/>
    <path class="fill round" fill-rule="evenodd" stroke-width=".851" d="M71.123 178.308h1.245v3.362h7.483v-3.362h1.245l-1.254-1.258v-2.2h-.78v1.423l-2.955-2.954z" transform="matrix(.99938 0 0 1.0018 -52.75 -158.516)"/>
    <path class="stroke nofill" d="M64.112 185.013H57.25v-1.687h5.145v-1.687H57.25v-1.684h5.145v-1.687H57.25v-1.687h5.145v-1.683H57.25V169.7" transform="matrix(.99938 0 0 1.0018 -52.75 -158.516)"/>
  </g>
  <path class="fill" fill-rule="evenodd" d="M40.146 18.943h8.413v3.33H46.97v-1.987h-4.19v3.767h3.526v1.335H42.78v3.992h4.191v-1.988h1.588v3.323h-8.413V29.38h1.116v-9.094h-1.116zm15.997 3.199q0-.684-.247-1.025-.248-.34-.55-.52-.295-.187-.652-.28-.355-.1-.712-.1-.589 0-1.03.14-.442.132-.736.364-.287.233-.434.543-.147.31-.147.653 0 .512.178.832.186.31.465.504.279.186.611.295.341.108.651.218l1.565.511q.706.226 1.24.513.542.288.906.684.365.387.55.901.193.511.193 1.187 0 .73-.302 1.352-.293.62-.829 1.079-.534.459-1.277.722-.737.256-1.62.256-.906 0-1.548-.21-.644-.2-1.086-.543-.433-.35-.697-.791-.263-.443-.41-.909h-.59v-1.336h1.953q0 .861.178 1.219.186.357.512.598.325.233.774.358.45.116.992.116.526 0 .945-.124.426-.125.72-.358.303-.24.457-.574.163-.342.163-.77 0-.472-.202-.799-.193-.334-.502-.567-.31-.232-.683-.38-.364-.148-.704-.257l-1.697-.481q-.558-.17-1.023-.435-.456-.264-.79-.645-.325-.38-.503-.885-.178-.512-.178-1.18 0-.676.263-1.266.264-.59.775-1.032.511-.444 1.247-.691.743-.257 1.697-.257.627 0 1.154.148.535.147.96.419.434.264.76.645.333.372.558.822h.58v1.337zm3.37-3.2h4.748q.79 0 1.45.211.666.2 1.146.605.487.396.751.994.271.598.271 1.375 0 .644-.263 1.219-.264.567-.743.994-.48.426-1.155.676-.666.248-1.488.248h-2.083v4.116h1.177v1.335h-3.81V29.38h1.115v-9.094h-1.116zm2.634 1.343v3.706h2.114q.442 0 .806-.117.373-.125.636-.357.27-.233.418-.582.155-.35.155-.808 0-.87-.527-1.35-.527-.49-1.681-.49zm15.47-1.342h3.812v1.335h-1.116v9.102h1.116v1.335h-3.812V29.38h1.177v-4.232h-6.793v4.232h1.177v1.335h-3.81V29.38h1.115v-9.102h-1.116v-1.335h3.81v1.335h-1.176v3.565h6.793v-3.565h-1.177zm5.594 7.75q.008-.955.301-1.74.302-.784.837-1.344.535-.566 1.27-.868.737-.304 1.62-.304.89 0 1.626.303.744.303 1.27.861.527.552.822 1.337.295.784.295 1.74 0 .938-.295 1.73-.295.785-.822 1.352-.526.567-1.27.885-.735.31-1.627.31-.906 0-1.642-.31t-1.262-.87q-.527-.567-.822-1.351-.294-.785-.301-1.731zm1.526 0q0 .691.194 1.25.2.559.541.955.349.388.798.606.457.21.97.21.533 0 .99-.21.465-.21.806-.598.34-.396.535-.955.193-.56.193-1.258 0-.73-.193-1.298-.194-.566-.535-.946-.334-.38-.798-.575-.465-.195-1-.195-.51 0-.968.195-.45.194-.798.575-.34.38-.541.946-.194.567-.194 1.298zM92.8 22.67h2.556v.94h.015q.264-.226.55-.42.295-.202.612-.35.318-.147.659-.233.349-.086.72-.086.869 0 1.496.327.627.318.968 1.002.294-.265.62-.505.324-.249.674-.427.356-.18.744-.288.386-.109.805-.109.65 0 1.17.18.52.178.883.543t.55.94q.194.566.194 1.343v3.852h1.115v1.335h-3.75V29.38h1.131v-3.673q0-.925-.464-1.398-.465-.48-1.34-.48-.52 0-1.062.247-.541.249-.93.63v4.674h1.11v1.335h-3.744V29.38h1.132v-3.673q0-.925-.473-1.398-.465-.481-1.34-.481-.504 0-1.015.24-.511.24-.969.598v4.714h1.131v1.335H92.8V29.38h1.115v-5.374H92.8zm17.259 4.208q0 .342.046.63.055.279.148.535.286.777.913 1.172.636.389 1.433.389.628 0 1.217-.17.596-.18 1.247-.552l.582.985q-.79.544-1.59.809-.797.263-1.656.263-.814 0-1.512-.271-.69-.273-1.192-.809-.496-.534-.783-1.335-.278-.8-.278-1.863 0-.862.24-1.623.24-.769.712-1.337.48-.574 1.186-.907.704-.335 1.642-.335.906 0 1.51.28.612.272.992.73.388.45.58 1.033.202.583.28 1.188.038.296.046.598.015.303.015.59zm2.254-3.207q-.503 0-.883.148-.372.14-.635.41-.263.265-.426.654-.155.387-.233.87h4.16q-.03-.452-.147-.832-.108-.381-.341-.66-.232-.28-.596-.434-.365-.156-.9-.156z" aria-label="ESPHome"/>
  <path class="fill" d="m44.357 15.707 2.168-6.478v6.478h.93V7.978h-1.363l-2.243 6.732-2.285-6.732H40.2v7.729h.93V9.229l2.19 6.478zm9.517-.51c-.095.02-.138.02-.19.02-.307 0-.477-.16-.477-.435v-3.265c0-.986-.72-1.516-2.083-1.516-.815 0-1.46.233-1.84.647-.254.286-.36.604-.381 1.155h.888c.074-.678.476-.986 1.302-.986.803 0 1.237.297 1.237.828v.232c-.01.382-.201.52-.92.615-1.249.16-1.44.202-1.778.34-.645.275-.973.763-.973 1.485 0 1.006.699 1.642 1.819 1.642.7 0 1.26-.243 1.883-.816.064.573.34.816.91.816.19 0 .307-.02.603-.095zm-1.544-1.231c0 .297-.085.478-.35.721-.36.329-.792.498-1.311.498-.688 0-1.09-.328-1.09-.89 0-.584.381-.88 1.334-1.018.941-.128 1.12-.17 1.417-.308zm7-5.983h-.877v2.873c-.37-.56-.962-.858-1.703-.858-1.439 0-2.38 1.155-2.38 2.925 0 1.877.909 3.033 2.411 3.033.762 0 1.291-.286 1.767-.975v.731h.782zm-2.432 2.841c.951 0 1.555.838 1.555 2.174 0 1.282-.614 2.131-1.545 2.131-.972 0-1.618-.859-1.618-2.152s.646-2.153 1.608-2.153zm8.509 2.409c0-.849-.064-1.358-.222-1.77-.36-.912-1.206-1.463-2.243-1.463-1.544 0-2.538 1.176-2.538 3.01s.952 2.947 2.517 2.947c1.27 0 2.147-.72 2.369-1.929h-.888c-.244.731-.74 1.113-1.449 1.113a1.53 1.533 0 0 1-1.333-.721c-.212-.318-.286-.636-.296-1.187zm-4.062-.722c.074-1.028.699-1.696 1.586-1.696.9 0 1.524.7 1.524 1.696zm10.188-2.354h-.92v-.87c0-.37.2-.56.613-.56.074 0 .106 0 .307.01v-.732a2.098 2.103 0 0 0-.497-.053c-.814 0-1.301.466-1.301 1.262v.943h-.74v.721h.739v4.835h.88v-4.835h.919zm2.978-.16c-1.565 0-2.496 1.113-2.496 2.98 0 1.876.931 2.978 2.507 2.978 1.565 0 2.506-1.113 2.506-2.937 0-1.93-.909-3.021-2.518-3.021zm.01.816c.994 0 1.587.817 1.587 2.194 0 1.316-.614 2.132-1.586 2.132-.984 0-1.587-.816-1.587-2.164s.603-2.162 1.587-2.162zm3.728-.656v5.556h.888v-2.885c.01-1.336.56-1.929 1.777-1.897v-.901a2.229 2.234 0 0 0-.339-.032c-.57 0-1.004.34-1.512 1.166v-1.007z" aria-label="Made for"/>
</svg>