<svg xmlns="http://www.w3.org/2000/svg" fill="none" viewBox="0 0 3006 1002">
  <g clip-path="url(#a)">
    <g filter="url(#b)">
      <rect width="801.9" height="802.9" x="99.5996" y="98.75" fill="#000" rx="400.95"/>
    </g>
    <rect width="811.9" height="812.9" x="94.5996" y="94" stroke="url(#c)" stroke-width="10" rx="405.95"/>
    <g clip-path="url(#d)">
      <path fill="#FA9012" d="m604.377 284.844-19.606-15.484v-35.202c0-2.395-.947-3.063-2.646-3.063H564.19c-1.949 0-3.147.39-3.147 3.063v16.459c-25.928-20.469-54.028-42.665-55.086-43.5-2.116-1.671-3.425-2.117-4.957-2.117-1.504 0-2.813.446-4.957 2.117-2.117 1.671-95.579 75.499-98.42 77.727-3.453 2.729-2.478 6.656 1.365 6.656h18.241v99.032c0 6.405 2.562 8.967 8.661 8.967h150.22c6.099 0 8.661-2.562 8.661-8.967v-99.06h18.241c3.843 0 4.818-3.899 1.365-6.628Zm-34.979 91.763c0 4.428-2.284 7.492-6.907 7.492h-123.01c-4.623 0-6.907-3.064-6.907-7.492v-92.543c0-5.375 2.34-8.8 5.041-10.917l59.152-46.703c1.559-1.225 2.896-1.755 4.205-1.755 1.309 0 2.646.53 4.205 1.783l59.152 46.703c2.674 2.117 5.041 5.542 5.041 10.917v92.515h.028Z"/>
      <path fill="#FFAB1F" d="m564.387 273.144-59.18-46.731c-1.559-1.225-2.952-1.754-4.205-1.754-1.281 0-2.646.529-4.205 1.782l-59.18 46.703c-2.674 2.117-5.041 5.542-5.041 10.917v92.543c0 4.428 2.284 7.492 6.907 7.492h123.01c4.623 0 6.907-3.064 6.907-7.492v-92.543c0-5.375-2.34-8.8-5.013-10.917Zm-10.304 89.564c0 4.121-2.34 6.043-5.765 6.043h-94.604c-3.426 0-5.765-1.922-5.765-6.043v-72.269c0-4.011.947-6.294 3.787-8.55 1.616-1.281 44.643-35.257 45.785-36.148 1.142-.919 2.367-1.365 3.481-1.365 1.114 0 2.339.473 3.481 1.365 1.142.919 44.169 34.895 45.784 36.148 2.841 2.256 3.788 4.567 3.788 8.55l.028 72.269Z"/>
      <path fill="#FFBE41" d="M550.28 281.888c-1.615-1.253-44.642-35.257-45.784-36.148-1.142-.919-2.367-1.365-3.481-1.365-1.114 0-2.34.473-3.481 1.365-1.142.919-44.169 34.895-45.785 36.148-2.84 2.256-3.787 4.567-3.787 8.55v72.269c0 4.121 2.339 6.043 5.765 6.043h94.604c3.425 0 5.765-1.922 5.765-6.043v-72.269c-.028-3.983-.975-6.294-3.816-8.55Zm-11.557 66.922c0 3.314-1.838 4.595-4.345 4.595h-66.727c-2.506 0-4.344-1.281-4.344-4.595v-51.967c0-2.311 0-4.149 2.534-6.182 1.671-1.337 31.526-24.898 32.417-25.594.891-.696 1.782-1.058 2.757-1.058 1.002.028 1.977.417 2.757 1.058.891.696 30.746 24.257 32.416 25.594 2.535 2.033 2.535 3.871 2.535 6.182v51.967Z"/>
      <path fill="#FFD260" d="M536.19 290.666c-1.671-1.336-31.525-24.897-32.416-25.593-.78-.668-1.755-1.031-2.757-1.058-.975 0-1.866.362-2.758 1.058-.891.696-30.773 24.257-32.416 25.593-2.534 2.033-2.534 3.871-2.534 6.183v51.967c0 3.314 1.838 4.595 4.344 4.595h66.699c2.507 0 4.345-1.281 4.345-4.595v-51.967c.027-2.339.027-4.177-2.507-6.183Zm-12.81 44.281c0 2.562-1.282 3.119-3.064 3.119h-38.571c-1.783 0-3.064-.585-3.064-3.119v-31.721c0-1.782.808-3.509 2.173-4.623.779-.64 17.545-13.757 18.13-14.231 1.169-.974 2.896-.974 4.066 0 .612.474 17.35 13.591 18.129 14.231 1.393 1.142 2.201 2.841 2.173 4.623l.028 31.721Z"/>
      <path fill="#FFE780" d="M500.992 338.032h19.272c1.782 0 3.063-.584 3.063-3.119v-31.692c0-1.783-.807-3.509-2.172-4.623-.78-.641-17.545-13.758-18.13-14.231-1.17-.975-2.896-.975-4.066 0-.585.473-17.35 13.59-18.13 14.231-1.392 1.142-2.2 2.84-2.172 4.623v31.692c0 2.562 1.281 3.119 3.063 3.119h19.272Z"/>
      <path fill="#B0BEC5" d="M456.029 614.25h17.92v-28.369h28.076v28.369h17.92v-70.459h-17.92v27.686h-28.076v-27.686h-17.92v70.459Zm73.584 0h17.334v-53.174h-17.334v53.174Zm8.643-58.887c2.506 0 4.606-.846 6.299-2.539 1.692-1.692 2.539-3.694 2.539-6.006 0-2.343-.847-4.345-2.539-6.006-1.693-1.692-3.793-2.539-6.299-2.539-2.474 0-4.574.847-6.299 2.539-1.693 1.661-2.539 3.663-2.539 6.006 0 2.312.846 4.314 2.539 6.006 1.725 1.693 3.825 2.539 6.299 2.539ZM454.867 791h5.703v-12.031c0-.925.17-1.732.508-2.422.352-.69.84-1.224 1.465-1.602.625-.39 1.361-.586 2.207-.586 1.276 0 2.233.378 2.871 1.133.651.742.977 1.797.977 3.164V791h5.703v-13.516c0-2.461-.632-4.381-1.895-5.761-1.25-1.394-3.027-2.09-5.332-2.09-1.575 0-2.897.345-3.965 1.035-1.067.69-1.875 1.634-2.421 2.832h-.118v-3.438h-5.703V791Zm23.535 0h18.672v-4.863h-12.773v-7.09h12.051v-4.609h-12.051v-6.758h12.773v-4.864h-18.672V791Zm33.223.488c2.37 0 4.401-.358 6.094-1.074 1.705-.729 3.008-1.751 3.906-3.066.911-1.328 1.367-2.897 1.367-4.707v-.02c0-1.471-.306-2.728-.918-3.769-.599-1.055-1.53-1.928-2.793-2.618-1.263-.69-2.877-1.23-4.843-1.621l-2.989-.605c-1.614-.326-2.799-.762-3.554-1.309-.756-.547-1.133-1.263-1.133-2.148v-.02c0-.677.189-1.269.566-1.777.391-.508.951-.905 1.68-1.192.729-.299 1.595-.449 2.597-.449.977 0 1.836.144 2.579.43.755.286 1.36.697 1.816 1.23.456.521.736 1.153.84 1.895l.019.234h5.567l-.02-.371c-.091-1.64-.579-3.079-1.465-4.316-.885-1.237-2.122-2.194-3.711-2.871-1.575-.677-3.45-1.016-5.625-1.016-2.083 0-3.932.358-5.546 1.074-1.615.703-2.885 1.7-3.809 2.989-.924 1.276-1.387 2.773-1.387 4.492v.019c0 2.123.703 3.848 2.11 5.176 1.406 1.328 3.496 2.272 6.269 2.832l2.969.586c1.758.365 3.008.82 3.75 1.367.755.534 1.133 1.276 1.133 2.227v.019c0 .717-.222 1.348-.664 1.895-.43.534-1.042.95-1.836 1.25-.782.286-1.719.43-2.813.43-1.067 0-2.024-.144-2.871-.43-.846-.3-1.536-.71-2.07-1.231-.521-.533-.847-1.165-.977-1.894l-.039-.215h-5.566l.019.313c.118 1.731.651 3.216 1.602 4.453.95 1.224 2.253 2.168 3.906 2.832 1.667.651 3.613.976 5.84.976Zm17.949-9.375h8.36c1.979 0 3.711-.397 5.195-1.191 1.484-.794 2.637-1.914 3.457-3.36.833-1.445 1.25-3.138 1.25-5.078v-.039c0-1.927-.417-3.613-1.25-5.058-.82-1.446-1.973-2.565-3.457-3.36-1.484-.807-3.216-1.211-5.195-1.211h-8.36v4.668h6.914c1.693 0 3.008.43 3.946 1.289.95.86 1.425 2.09 1.425 3.692v.039c0 1.601-.475 2.838-1.425 3.711-.938.859-2.253 1.289-3.946 1.289h-6.914v4.609ZM526.605 791h5.899v-28.184h-5.899V791Z"/>
    </g>
    <rect width="801.9" height="802.9" x="100" y="99" fill="url(#e)" rx="400.95"/>
    <g filter="url(#f)">
      <rect width="801.9" height="802.9" x="1101.5" y="98.8501" fill="#000" rx="400.95"/>
    </g>
    <rect width="811.9" height="812.9" x="1096.5" y="94.0996" stroke="url(#g)" stroke-width="10" rx="405.95"/>
    <g clip-path="url(#h)">
      <path fill="#7C8287" fill-rule="evenodd" d="M1555.08 271.157c4.06 1.79 6.49 5.163 6.49 9.015 0 5.097-3.8 8.134-10.17 8.134-6.76 0-9.9-6.138-10.71-8.012l-.98-2.324h-12.67l-.01-.019h-11.74c-3.2 5.51-9.65 10.593-17.15 10.593-13.55 0-20.3-10.912-21.17-21.683h55.35v-2.357c0-4.47-.45-8.668-1.3-12.576 1.59 5.014 5.2 10.2 12.77 13.878 2.76 1.359 6.93 3.388 11.29 5.351Zm-57.74-34.236c11.33 0 16.88 8.059 18.48 16.258h-37.69c1.97-8.218 8.95-16.258 19.21-16.258Zm111.06.235V222.42h-11.76V205h-14.45v17.42h-29.1c-13.43.009-23.18 9.324-23.18 22.162 0 1.377.12 2.867.39 4.413-4.58-16.356-16.65-26.575-32.85-26.575-19.82 0-34.97 15.916-36.24 37.478v-4.582c0-18.142-14.32-32.891-31.91-32.891-17.59-.005-31.9 14.745-31.9 32.886v47.158h14.62v-47.148c0-9.821 7.75-17.819 17.28-17.819 9.53 0 17.28 7.998 17.28 17.819v47.158h14.62v-36.691c1.28 21.637 16.64 37.604 36.72 37.604 12.25 0 23.07-7.342 29.18-15.846 4.58 10.074 13.51 15.846 24.53 15.846 12.78 0 25.73-8.419 25.73-24.513 0-9.633-5.44-17.51-15.29-22.181-1.26-.59-2.28-1.087-3.25-1.565l-.13-.07c-1.16-.567-2.32-1.125-3.49-1.673-6.44-2.98-9.51-5.168-9.51-9.52 0-3.828 3.33-6.714 7.43-6.714h29.08v41.999c0 13.372 10.54 24.237 23.5 24.237v-14.89c-5 0-9.06-4.193-9.06-9.347v-41.999c5.77.009 10.22 0 11.76 0Z" clip-rule="evenodd"/>
      <path fill="#fff" d="M1515.21 504.247v13.799h-69.26v-13.799h69.26Zm-66.63-55.019v127.968h-16.96V449.228h16.96Zm81.39 0v127.968h-16.87V449.228h16.87Zm45.35 32.871v95.097h-16.35v-95.097h16.35Zm-17.58-25.225c0-2.637.8-4.863 2.38-6.68 1.64-1.816 4.04-2.724 7.2-2.724 3.11 0 5.48.908 7.12 2.724 1.7 1.817 2.55 4.043 2.55 6.68 0 2.52-.85 4.688-2.55 6.504-1.64 1.758-4.01 2.637-7.12 2.637-3.16 0-5.56-.879-7.2-2.637-1.58-1.816-2.38-3.984-2.38-6.504Z"/>
      <path fill="#B0BEC5" d="M1442.08 758.068V783h-5.42v-31.699h5.13l.29 6.767Zm-1.29 7.881-2.25-.088c.01-2.168.34-4.17.96-6.006.63-1.855 1.51-3.466 2.64-4.834 1.13-1.367 2.48-2.421 4.04-3.164 1.58-.761 3.33-1.142 5.25-1.142 1.56 0 2.96.215 4.21.644 1.25.411 2.32 1.075 3.2 1.993.9.918 1.58 2.109 2.05 3.574.47 1.445.7 3.213.7 5.303V783h-5.45v-20.83c0-1.66-.24-2.988-.73-3.984-.49-1.016-1.2-1.748-2.14-2.198-.94-.468-2.09-.703-3.46-.703-1.34 0-2.57.283-3.69.85-1.09.566-2.04 1.347-2.84 2.344-.78.996-1.4 2.138-1.84 3.427-.43 1.27-.65 2.617-.65 4.043Zm56.95 12.451v4.6h-22.58v-4.6h22.58Zm-21.44-38.056V783h-5.66v-42.656h5.66Zm18.46 18.34v4.599h-19.6v-4.599h19.6Zm2.69-18.34v4.629h-22.29v-4.629h22.29Zm30.03 31.875c0-.996-.16-1.875-.47-2.637-.29-.781-.82-1.484-1.58-2.109-.74-.625-1.78-1.221-3.11-1.787-1.3-.567-2.96-1.143-4.98-1.729-2.11-.625-4.01-1.318-5.71-2.08-1.7-.781-3.15-1.67-4.36-2.666-1.22-.996-2.14-2.139-2.79-3.428-.64-1.289-.96-2.763-.96-4.424 0-1.66.34-3.193 1.02-4.599.68-1.406 1.66-2.627 2.93-3.662 1.29-1.055 2.82-1.875 4.6-2.461 1.78-.586 3.76-.879 5.95-.879 3.2 0 5.92.615 8.14 1.846 2.25 1.21 3.96 2.802 5.13 4.775 1.17 1.953 1.76 4.043 1.76 6.269h-5.63c0-1.601-.34-3.017-1.02-4.248-.69-1.25-1.72-2.226-3.11-2.929-1.39-.723-3.14-1.084-5.27-1.084-2.01 0-3.67.302-4.98.908-1.31.605-2.29 1.426-2.93 2.461-.63 1.035-.94 2.217-.94 3.545 0 .898.19 1.719.56 2.461.39.722.98 1.396 1.78 2.021.82.625 1.86 1.201 3.11 1.729 1.27.527 2.78 1.035 4.54 1.523 2.42.684 4.51 1.445 6.27 2.285 1.76.84 3.2 1.787 4.34 2.842 1.15 1.035 2 2.217 2.54 3.545.57 1.309.85 2.793.85 4.453 0 1.738-.35 3.311-1.05 4.717-.7 1.406-1.71 2.607-3.02 3.603-1.31.997-2.88 1.768-4.71 2.315-1.82.527-3.85.791-6.1.791-1.97 0-3.91-.274-5.83-.82-1.89-.547-3.62-1.368-5.18-2.461-1.55-1.094-2.79-2.442-3.73-4.043-.91-1.621-1.37-3.496-1.37-5.625h5.62c0 1.465.29 2.724.85 3.779.57 1.035 1.34 1.895 2.32 2.578.99.684 2.12 1.192 3.37 1.524 1.27.312 2.58.468 3.95.468 1.97 0 3.64-.273 5.01-.82 1.37-.547 2.4-1.328 3.11-2.344.72-1.015 1.08-2.217 1.08-3.603Zm28.62-5.948h-11.39v-4.599h11.39c2.21 0 4-.352 5.36-1.055 1.37-.703 2.37-1.679 2.99-2.929.65-1.25.97-2.676.97-4.278 0-1.465-.32-2.842-.97-4.131-.62-1.289-1.62-2.324-2.99-3.105-1.36-.801-3.15-1.201-5.36-1.201h-10.07V783h-5.66v-42.656h15.73c3.23 0 5.95.556 8.18 1.67 2.22 1.113 3.91 2.656 5.07 4.629 1.15 1.953 1.72 4.189 1.72 6.709 0 2.734-.57 5.068-1.72 7.002-1.16 1.933-2.85 3.408-5.07 4.423-2.23.996-4.95 1.494-8.18 1.494Z"/>
    </g>
    <rect width="801.9" height="802.9" x="1101.9" y="99" fill="url(#i)" rx="400.95"/>
    <g filter="url(#j)">
      <rect width="801.9" height="802.9" x="2103.4" y="98.9502" fill="#000" rx="400.95"/>
    </g>
    <rect width="811.9" height="812.9" x="2098.4" y="94.2002" stroke="url(#k)" stroke-width="10" rx="405.95"/>
    <g clip-path="url(#l)">
      <path fill="#DE5448" fill-rule="evenodd" d="M2500.45 205.877c1.21-.406 2.41-.998 3.73-.855 1.01.124 2.21-.271 3.1.292 2.44.474 4.57 1.884 6.29 3.641 7.28 7.292 14.56 14.577 21.84 21.862.73.78 1.58 1.45 2.2 2.333-8.17 8.343-16.49 16.53-24.72 24.812-2.7 2.669-5.33 5.405-8.07 8.026-3.62 3.406-7.04 7.015-10.58 10.499-16.02 16.073-32.1 32.09-48.08 48.199-7.48 7.574-15.04 15.062-22.55 22.6-8.1 8.086-16.17 16.216-24.3 24.274 0-5.522-.01-11.043-.01-16.562v-3.306c0-11.039.01-22.083.01-33.123.01-3.334-.06-6.672.06-10.003-.03-.673.47-1.207.44-1.884.47-.795.9-1.618 1.36-2.419 1.15-1.536 2.59-2.822 3.93-4.193 30.32-30.377 60.64-60.75 90.96-91.119 1.24-1.3 2.66-2.483 4.39-3.074Z" clip-rule="evenodd"/>
      <path fill="#4C8CF5" fill-rule="evenodd" d="M2512.89 257.966c8.23-8.283 16.55-16.469 24.72-24.812 22.24 22.368 44.56 44.651 66.85 66.976 2.01 2.067 4.45 3.969 5.24 6.886.76 1.899.53 3.965.56 5.964.01 32.685 0 65.366.01 98.051.5 6.448-5.66 12.472-12.07 11.963-11.6 0-23.2.003-34.8 0-.04-15.618.01-31.235-.03-46.856.03-17.171.01-34.338.01-51.506-14.48-14.452-28.92-28.937-43.39-43.397-5.05-5.09-10.17-10.106-15.17-15.239 2.74-2.626 5.37-5.362 8.07-8.03Z" clip-rule="evenodd"/>
      <path fill="#FDC00D" fill-rule="evenodd" d="M2423.61 347.293c7.51-7.538 15.08-15.026 22.55-22.6.06 17.146-.01 34.295.04 51.441-.04 15.617.01 31.231-.03 46.852-12.2-.007-24.41.004-36.61-.007-5.1-.641-9.58-4.93-10.23-10.067-.04-13.783-.02-27.562-.02-41.342 8.14-8.061 16.2-16.191 24.3-24.277Z" clip-rule="evenodd"/>
      <path fill="#3BAB59" fill-rule="evenodd" d="M2446.2 376.134c39.05.01 78.11.003 117.17 0 .04 15.617-.01 31.235.03 46.856-39.07-.007-78.15 0-117.23-.004.04-15.621-.01-31.235.03-46.852Z" clip-rule="evenodd"/>
      <path fill="#B0BEC5" d="M2514.37 581.273v10.733h-53.87v-10.733h53.87Zm-51.82-42.793v99.532h-13.19V538.48h13.19Zm63.3 0v99.532h-13.12V538.48h13.12Zm35.28 25.567v73.965h-12.72v-73.965h12.72Zm-13.67-19.619c0-2.051.61-3.783 1.84-5.196 1.28-1.412 3.15-2.119 5.61-2.119 2.41 0 4.26.707 5.53 2.119 1.33 1.413 1.99 3.145 1.99 5.196 0 1.959-.66 3.646-1.99 5.058-1.27 1.368-3.12 2.051-5.53 2.051-2.46 0-4.33-.683-5.61-2.051-1.23-1.412-1.84-3.099-1.84-5.058Zm-83.21 229.951V791h-3.61v-21.133h3.42l.19 4.512Zm-.86 5.254-1.5-.059c.01-1.445.23-2.78.64-4.004.42-1.237 1.01-2.311 1.76-3.222.76-.912 1.66-1.615 2.7-2.11 1.05-.508 2.22-.761 3.49-.761 1.05 0 1.98.143 2.82.429.83.274 1.54.716 2.12 1.328.6.612 1.06 1.407 1.37 2.383.31.964.47 2.142.47 3.535V791h-3.63v-13.887c0-1.106-.16-1.992-.49-2.656-.33-.677-.8-1.165-1.43-1.465-.62-.312-1.39-.469-2.3-.469-.9 0-1.72.189-2.46.567-.73.377-1.36.898-1.9 1.562-.52.664-.93 1.426-1.23 2.286-.28.846-.43 1.744-.43 2.695Zm37.97 8.301V791h-15.06v-3.066h15.06Zm-14.29-25.372V791h-3.77v-28.438h3.77Zm12.3 12.227v3.066h-13.07v-3.066h13.07Zm1.8-12.227v3.086h-14.87v-3.086h14.87Zm20.02 21.25c0-.664-.11-1.25-.32-1.757-.19-.521-.54-.99-1.05-1.407-.5-.416-1.19-.813-2.07-1.191-.87-.378-1.98-.762-3.32-1.152-1.41-.417-2.68-.879-3.81-1.387-1.13-.521-2.1-1.113-2.91-1.777-.81-.664-1.43-1.426-1.86-2.286-.43-.859-.64-1.842-.64-2.949 0-1.107.23-2.129.68-3.066.46-.938 1.11-1.751 1.96-2.442.86-.703 1.88-1.25 3.06-1.64 1.19-.391 2.51-.586 3.97-.586 2.13 0 3.94.41 5.43 1.23 1.5.808 2.63 1.869 3.42 3.184.78 1.302 1.17 2.695 1.17 4.18h-3.75c0-1.068-.23-2.012-.69-2.832-.45-.834-1.14-1.485-2.07-1.954-.92-.481-2.09-.722-3.51-.722-1.34 0-2.45.202-3.32.605-.87.404-1.53.951-1.96 1.641-.41.69-.62 1.478-.62 2.363 0 .599.12 1.146.37 1.641.26.482.66.931 1.19 1.347.55.417 1.24.801 2.07 1.153.85.351 1.86.69 3.03 1.015 1.61.456 3.01.964 4.18 1.524s2.13 1.191 2.89 1.894c.77.691 1.33 1.478 1.7 2.364.38.872.57 1.862.57 2.968 0 1.159-.24 2.207-.71 3.145-.47.937-1.14 1.738-2.01 2.402-.87.664-1.92 1.179-3.14 1.543-1.21.352-2.57.528-4.07.528-1.31 0-2.61-.183-3.88-.547-1.27-.365-2.42-.912-3.46-1.641-1.03-.729-1.86-1.627-2.48-2.695-.61-1.081-.92-2.331-.92-3.75h3.75c0 .976.19 1.816.57 2.519.38.69.89 1.263 1.54 1.719.66.456 1.41.794 2.25 1.016.84.208 1.72.312 2.63.312 1.32 0 2.43-.182 3.34-.547.92-.364 1.61-.885 2.07-1.562.49-.677.73-1.478.73-2.403Zm19.08-3.964h-7.6v-3.067h7.6c1.47 0 2.66-.234 3.57-.703.91-.469 1.58-1.12 1.99-1.953.43-.833.65-1.784.65-2.852 0-.976-.22-1.894-.65-2.753-.41-.86-1.08-1.55-1.99-2.071-.91-.534-2.1-.801-3.57-.801h-6.72V791h-3.77v-28.438h10.49c2.15 0 3.96.372 5.45 1.114 1.48.742 2.61 1.771 3.38 3.086.76 1.302 1.15 2.793 1.15 4.472 0 1.823-.39 3.379-1.15 4.668-.77 1.289-1.9 2.272-3.38 2.95-1.49.664-3.3.996-5.45.996Z"/>
    </g>
    <rect width="801.9" height="802.9" x="2103.8" y="99" fill="url(#m)" rx="400.95"/>
  </g>
  <defs>
    <linearGradient id="c" x1="901.6" x2="99.5996" y1="902" y2="99" gradientUnits="userSpaceOnUse">
      <stop stop-color="#78909C"/>
      <stop offset="1" stop-color="#fff"/>
    </linearGradient>
    <linearGradient id="e" x1="500.95" x2="500.95" y1="99" y2="901.9" gradientUnits="userSpaceOnUse">
      <stop stop-color="#fff" stop-opacity=".2"/>
      <stop offset="1" stop-color="#fff" stop-opacity="0"/>
    </linearGradient>
    <linearGradient id="g" x1="1903.5" x2="1101.5" y1="902.1" y2="99.0996" gradientUnits="userSpaceOnUse">
      <stop stop-color="#78909C"/>
      <stop offset="1" stop-color="#fff"/>
    </linearGradient>
    <linearGradient id="i" x1="1502.85" x2="1502.85" y1="99" y2="901.9" gradientUnits="userSpaceOnUse">
      <stop stop-color="#fff" stop-opacity=".2"/>
      <stop offset="1" stop-color="#fff" stop-opacity="0"/>
    </linearGradient>
    <linearGradient id="k" x1="2905.4" x2="2103.4" y1="902.2" y2="99.2002" gradientUnits="userSpaceOnUse">
      <stop stop-color="#78909C"/>
      <stop offset="1" stop-color="#fff"/>
    </linearGradient>
    <linearGradient id="m" x1="2905.8" x2="2103.8" y1="99.2" y2="902.2" gradientUnits="userSpaceOnUse">
      <stop stop-color="#fff" stop-opacity=".2"/>
      <stop offset="1" stop-color="#fff" stop-opacity="0"/>
    </linearGradient>
    <clipPath id="a">
      <path fill="#fff" d="M0 0h3005.7v1001.9H0z"/>
    </clipPath>
    <clipPath id="d">
      <path fill="#fff" d="M290 205h422v592H290z"/>
    </clipPath>
    <clipPath id="h">
      <path fill="#fff" d="M1291.9 205h422v592h-422z"/>
    </clipPath>
    <clipPath id="l">
      <path fill="#fff" d="M2293.8 205h422v592h-422z"/>
    </clipPath>
    <filter id="b" width="1021.9" height="1324.9" x="-10.4004" y="79.75" color-interpolation-filters="sRGB" filterUnits="userSpaceOnUse">
      <feFlood flood-opacity="0" result="BackgroundImageFix"/>
      <feColorMatrix in="SourceAlpha" result="hardAlpha" values="0 0 0 0 0 0 0 0 0 0 0 0 0 0 0 0 0 0 127 0"/>
      <feOffset/>
      <feColorMatrix values="0 0 0 0 0 0 0 0 0 0 0 0 0 0 0 0 0 0 0.35 0"/>
      <feBlend in2="BackgroundImageFix" result="effect1_dropShadow_312_246"/>
      <feColorMatrix in="SourceAlpha" result="hardAlpha" values="0 0 0 0 0 0 0 0 0 0 0 0 0 0 0 0 0 0 127 0"/>
      <feOffset dy="16"/>
      <feGaussianBlur stdDeviation="17.5"/>
      <feColorMatrix values="0 0 0 0 0 0 0 0 0 0 0 0 0 0 0 0 0 0 0.34 0"/>
      <feBlend in2="effect1_dropShadow_312_246" result="effect2_dropShadow_312_246"/>
      <feColorMatrix in="SourceAlpha" result="hardAlpha" values="0 0 0 0 0 0 0 0 0 0 0 0 0 0 0 0 0 0 127 0"/>
      <feOffset dy="63"/>
      <feGaussianBlur stdDeviation="31.5"/>
      <feColorMatrix values="0 0 0 0 0 0 0 0 0 0 0 0 0 0 0 0 0 0 0.3 0"/>
      <feBlend in2="effect2_dropShadow_312_246" result="effect3_dropShadow_312_246"/>
      <feColorMatrix in="SourceAlpha" result="hardAlpha" values="0 0 0 0 0 0 0 0 0 0 0 0 0 0 0 0 0 0 127 0"/>
      <feOffset dy="141"/>
      <feGaussianBlur stdDeviation="42.5"/>
      <feColorMatrix values="0 0 0 0 0 0 0 0 0 0 0 0 0 0 0 0 0 0 0.18 0"/>
      <feBlend in2="effect3_dropShadow_312_246" result="effect4_dropShadow_312_246"/>
      <feColorMatrix in="SourceAlpha" result="hardAlpha" values="0 0 0 0 0 0 0 0 0 0 0 0 0 0 0 0 0 0 127 0"/>
      <feOffset dy="251"/>
      <feGaussianBlur stdDeviation="50.5"/>
      <feColorMatrix values="0 0 0 0 0 0 0 0 0 0 0 0 0 0 0 0 0 0 0.05 0"/>
      <feBlend in2="effect4_dropShadow_312_246" result="effect5_dropShadow_312_246"/>
      <feColorMatrix in="SourceAlpha" result="hardAlpha" values="0 0 0 0 0 0 0 0 0 0 0 0 0 0 0 0 0 0 127 0"/>
      <feOffset dy="393"/>
      <feGaussianBlur stdDeviation="55"/>
      <feColorMatrix values="0 0 0 0 0 0 0 0 0 0 0 0 0 0 0 0 0 0 0.01 0"/>
      <feBlend in2="effect5_dropShadow_312_246" result="effect6_dropShadow_312_246"/>
      <feBlend in="SourceGraphic" in2="effect6_dropShadow_312_246" result="shape"/>
    </filter>
    <filter id="f" width="1021.9" height="1324.9" x="991.5" y="79.8501" color-interpolation-filters="sRGB" filterUnits="userSpaceOnUse">
      <feFlood flood-opacity="0" result="BackgroundImageFix"/>
      <feColorMatrix in="SourceAlpha" result="hardAlpha" values="0 0 0 0 0 0 0 0 0 0 0 0 0 0 0 0 0 0 127 0"/>
      <feOffset/>
      <feColorMatrix values="0 0 0 0 0 0 0 0 0 0 0 0 0 0 0 0 0 0 0.35 0"/>
      <feBlend in2="BackgroundImageFix" result="effect1_dropShadow_312_246"/>
      <feColorMatrix in="SourceAlpha" result="hardAlpha" values="0 0 0 0 0 0 0 0 0 0 0 0 0 0 0 0 0 0 127 0"/>
      <feOffset dy="16"/>
      <feGaussianBlur stdDeviation="17.5"/>
      <feColorMatrix values="0 0 0 0 0 0 0 0 0 0 0 0 0 0 0 0 0 0 0.34 0"/>
      <feBlend in2="effect1_dropShadow_312_246" result="effect2_dropShadow_312_246"/>
      <feColorMatrix in="SourceAlpha" result="hardAlpha" values="0 0 0 0 0 0 0 0 0 0 0 0 0 0 0 0 0 0 127 0"/>
      <feOffset dy="63"/>
      <feGaussianBlur stdDeviation="31.5"/>
      <feColorMatrix values="0 0 0 0 0 0 0 0 0 0 0 0 0 0 0 0 0 0 0.3 0"/>
      <feBlend in2="effect2_dropShadow_312_246" result="effect3_dropShadow_312_246"/>
      <feColorMatrix in="SourceAlpha" result="hardAlpha" values="0 0 0 0 0 0 0 0 0 0 0 0 0 0 0 0 0 0 127 0"/>
      <feOffset dy="141"/>
      <feGaussianBlur stdDeviation="42.5"/>
      <feColorMatrix values="0 0 0 0 0 0 0 0 0 0 0 0 0 0 0 0 0 0 0.18 0"/>
      <feBlend in2="effect3_dropShadow_312_246" result="effect4_dropShadow_312_246"/>
      <feColorMatrix in="SourceAlpha" result="hardAlpha" values="0 0 0 0 0 0 0 0 0 0 0 0 0 0 0 0 0 0 127 0"/>
      <feOffset dy="251"/>
      <feGaussianBlur stdDeviation="50.5"/>
      <feColorMatrix values="0 0 0 0 0 0 0 0 0 0 0 0 0 0 0 0 0 0 0.05 0"/>
      <feBlend in2="effect4_dropShadow_312_246" result="effect5_dropShadow_312_246"/>
      <feColorMatrix in="SourceAlpha" result="hardAlpha" values="0 0 0 0 0 0 0 0 0 0 0 0 0 0 0 0 0 0 127 0"/>
      <feOffset dy="393"/>
      <feGaussianBlur stdDeviation="55"/>
      <feColorMatrix values="0 0 0 0 0 0 0 0 0 0 0 0 0 0 0 0 0 0 0.01 0"/>
      <feBlend in2="effect5_dropShadow_312_246" result="effect6_dropShadow_312_246"/>
      <feBlend in="SourceGraphic" in2="effect6_dropShadow_312_246" result="shape"/>
    </filter>
    <filter id="j" width="1021.9" height="1324.9" x="1993.4" y="79.9502" color-interpolation-filters="sRGB" filterUnits="userSpaceOnUse">
      <feFlood flood-opacity="0" result="BackgroundImageFix"/>
      <feColorMatrix in="SourceAlpha" result="hardAlpha" values="0 0 0 0 0 0 0 0 0 0 0 0 0 0 0 0 0 0 127 0"/>
      <feOffset/>
      <feColorMatrix values="0 0 0 0 0 0 0 0 0 0 0 0 0 0 0 0 0 0 0.35 0"/>
      <feBlend in2="BackgroundImageFix" result="effect1_dropShadow_312_246"/>
      <feColorMatrix in="SourceAlpha" result="hardAlpha" values="0 0 0 0 0 0 0 0 0 0 0 0 0 0 0 0 0 0 127 0"/>
      <feOffset dy="16"/>
      <feGaussianBlur stdDeviation="17.5"/>
      <feColorMatrix values="0 0 0 0 0 0 0 0 0 0 0 0 0 0 0 0 0 0 0.34 0"/>
      <feBlend in2="effect1_dropShadow_312_246" result="effect2_dropShadow_312_246"/>
      <feColorMatrix in="SourceAlpha" result="hardAlpha" values="0 0 0 0 0 0 0 0 0 0 0 0 0 0 0 0 0 0 127 0"/>
      <feOffset dy="63"/>
      <feGaussianBlur stdDeviation="31.5"/>
      <feColorMatrix values="0 0 0 0 0 0 0 0 0 0 0 0 0 0 0 0 0 0 0.3 0"/>
      <feBlend in2="effect2_dropShadow_312_246" result="effect3_dropShadow_312_246"/>
      <feColorMatrix in="SourceAlpha" result="hardAlpha" values="0 0 0 0 0 0 0 0 0 0 0 0 0 0 0 0 0 0 127 0"/>
      <feOffset dy="141"/>
      <feGaussianBlur stdDeviation="42.5"/>
      <feColorMatrix values="0 0 0 0 0 0 0 0 0 0 0 0 0 0 0 0 0 0 0.18 0"/>
      <feBlend in2="effect3_dropShadow_312_246" result="effect4_dropShadow_312_246"/>
      <feColorMatrix in="SourceAlpha" result="hardAlpha" values="0 0 0 0 0 0 0 0 0 0 0 0 0 0 0 0 0 0 127 0"/>
      <feOffset dy="251"/>
      <feGaussianBlur stdDeviation="50.5"/>
      <feColorMatrix values="0 0 0 0 0 0 0 0 0 0 0 0 0 0 0 0 0 0 0.05 0"/>
      <feBlend in2="effect4_dropShadow_312_246" result="effect5_dropShadow_312_246"/>
      <feColorMatrix in="SourceAlpha" result="hardAlpha" values="0 0 0 0 0 0 0 0 0 0 0 0 0 0 0 0 0 0 127 0"/>
      <feOffset dy="393"/>
      <feGaussianBlur stdDeviation="55"/>
      <feColorMatrix values="0 0 0 0 0 0 0 0 0 0 0 0 0 0 0 0 0 0 0.01 0"/>
      <feBlend in2="effect5_dropShadow_312_246" result="effect6_dropShadow_312_246"/>
      <feBlend in="SourceGraphic" in2="effect6_dropShadow_312_246" result="shape"/>
    </filter>
  </defs>
</svg>
